<svg width="1573" height="77" viewBox="0 0 1573 77" fill="none" xmlns="http://www.w3.org/2000/svg">
<rect width="1506.06" height="40" transform="matrix(1 0 0 -1 0 58.1722)" fill="#323232"/>
<path d="M10.4588 58.0861L73.2115 58.0861L91.5143 18.0861L28.7617 18.0861L10.4588 58.0861Z" fill="white"/>
<path d="M504.113 58.0861L566.866 58.0861L585.169 18.0861L522.416 18.0861L504.113 58.0861Z" fill="white"/>
<path d="M997.767 58.0861L1060.52 58.0861L1078.82 18.0861L1016.07 18.0861L997.767 58.0861Z" fill="white"/>
<path d="M133.872 58.0861L196.625 58.0861L214.928 18.0861L152.175 18.0861L133.872 58.0861Z" fill="white"/>
<path d="M627.527 58.0861L690.279 58.0861L708.582 18.0861L645.829 18.0861L627.527 58.0861Z" fill="white"/>
<path d="M1121.18 58.0861L1183.93 58.0861L1202.24 18.0861L1139.48 18.0861L1121.18 58.0861Z" fill="white"/>
<path d="M257.286 58.0861L320.039 58.0861L338.341 18.0861L275.589 18.0861L257.286 58.0861Z" fill="white"/>
<path d="M750.94 58.0861L813.693 58.0861L831.996 18.0861L769.243 18.0861L750.94 58.0861Z" fill="white"/>
<path d="M1244.59 58.0861L1307.35 58.0861L1325.65 18.0861L1262.9 18.0861L1244.59 58.0861Z" fill="white"/>
<path d="M380.699 58.0861L443.452 58.0861L461.755 18.0861L399.002 18.0861L380.699 58.0861Z" fill="white"/>
<path d="M874.354 58.0861L937.106 58.0861L955.409 18.0861L892.657 18.0861L874.354 58.0861Z" fill="white"/>
<path d="M1368.01 58.0861L1430.76 58.0861L1449.06 18.0861L1386.31 18.0861L1368.01 58.0861Z" fill="white"/>
<path d="M1491.94 58.0861L1554.7 58.0861L1573 18.0861L1510.25 18.0861L1491.94 58.0861Z" fill="white"/>
<rect width="1506.06" height="40" transform="matrix(1 0 0 -1 0 58.1722)" fill="#323232"/>
<path d="M10.4588 58.0861L73.2115 58.0861L91.5143 18.0861L28.7617 18.0861L10.4588 58.0861Z" fill="white"/>
<path d="M504.113 58.0861L566.866 58.0861L585.169 18.0861L522.416 18.0861L504.113 58.0861Z" fill="white"/>
<path d="M997.767 58.0861L1060.52 58.0861L1078.82 18.0861L1016.07 18.0861L997.767 58.0861Z" fill="white"/>
<path d="M133.872 58.0861L196.625 58.0861L214.928 18.0861L152.175 18.0861L133.872 58.0861Z" fill="white"/>
<path d="M627.527 58.0861L690.279 58.0861L708.582 18.0861L645.829 18.0861L627.527 58.0861Z" fill="white"/>
<path d="M1121.18 58.0861L1183.93 58.0861L1202.24 18.0861L1139.48 18.0861L1121.18 58.0861Z" fill="white"/>
<path d="M257.286 58.0861L320.039 58.0861L338.341 18.0861L275.589 18.0861L257.286 58.0861Z" fill="white"/>
<path d="M750.94 58.0861L813.693 58.0861L831.996 18.0861L769.243 18.0861L750.94 58.0861Z" fill="white"/>
<path d="M1244.59 58.0861L1307.35 58.0861L1325.65 18.0861L1262.9 18.0861L1244.59 58.0861Z" fill="white"/>
<path d="M380.699 58.0861L443.452 58.0861L461.755 18.0861L399.002 18.0861L380.699 58.0861Z" fill="white"/>
<path d="M874.354 58.0861L937.106 58.0861L955.409 18.0861L892.657 18.0861L874.354 58.0861Z" fill="white"/>
<path d="M1368.01 58.0861L1430.76 58.0861L1449.06 18.0861L1386.31 18.0861L1368.01 58.0861Z" fill="white"/>
<path d="M1491.94 58.0861L1554.7 58.0861L1573 18.0861L1510.25 18.0861L1491.94 58.0861Z" fill="white"/>
</svg>
