<svg width="1602" height="118" viewBox="0 0 1602 118" fill="none" xmlns="http://www.w3.org/2000/svg">
<rect width="1485" height="40" transform="matrix(-1 0 0 1 1538 59.1722)" fill="#323232"/>
<path d="M1483 59.2583L1423 59.2583L1405.5 99.2583L1465.5 99.2583L1483 59.2583Z" fill="white"/>
<path d="M1011 59.2583L951 59.2583L933.5 99.2583L993.5 99.2583L1011 59.2583Z" fill="white"/>
<path d="M539 59.2583L479 59.2583L461.5 99.2583L521.5 99.2583L539 59.2583Z" fill="white"/>
<path d="M1365 59.2583L1305 59.2583L1287.5 99.2583L1347.5 99.2583L1365 59.2583Z" fill="white"/>
<path d="M893 59.2583L833 59.2583L815.5 99.2583L875.5 99.2583L893 59.2583Z" fill="white"/>
<path d="M421 59.2583L361 59.2583L343.5 99.2583L403.5 99.2583L421 59.2583Z" fill="white"/>
<path d="M1247 59.2583L1187 59.2583L1169.5 99.2583L1229.5 99.2583L1247 59.2583Z" fill="white"/>
<path d="M775 59.2583L715 59.2583L697.5 99.2583L757.5 99.2583L775 59.2583Z" fill="white"/>
<path d="M303 59.2583L243 59.2583L225.5 99.2583L285.5 99.2583L303 59.2583Z" fill="white"/>
<path d="M1129 59.2583L1069 59.2583L1051.5 99.2583L1111.5 99.2583L1129 59.2583Z" fill="white"/>
<path d="M657 59.2583L597 59.2583L579.5 99.2583L639.5 99.2583L657 59.2583Z" fill="white"/>
<path d="M185 59.2583L125 59.2583L107.5 99.2583L167.5 99.2583L185 59.2583Z" fill="white"/>
<path d="M1601.5 59.2583L1541.5 59.2583L1524 99.2583L1584 99.2583L1601.5 59.2583Z" fill="white"/>
<rect width="1485" height="40" transform="matrix(-1 0 0 1 1538 59.1722)" fill="#323232"/>
<path d="M1483 59.2583L1423 59.2583L1405.5 99.2583L1465.5 99.2583L1483 59.2583Z" fill="white"/>
<path d="M1011 59.2583L951 59.2583L933.5 99.2583L993.5 99.2583L1011 59.2583Z" fill="white"/>
<path d="M539 59.2583L479 59.2583L461.5 99.2583L521.5 99.2583L539 59.2583Z" fill="white"/>
<path d="M1365 59.2583L1305 59.2583L1287.5 99.2583L1347.5 99.2583L1365 59.2583Z" fill="white"/>
<path d="M893 59.2583L833 59.2583L815.5 99.2583L875.5 99.2583L893 59.2583Z" fill="white"/>
<path d="M421 59.2583L361 59.2583L343.5 99.2583L403.5 99.2583L421 59.2583Z" fill="white"/>
<path d="M1247 59.2583L1187 59.2583L1169.5 99.2583L1229.5 99.2583L1247 59.2583Z" fill="white"/>
<path d="M775 59.2583L715 59.2583L697.5 99.2583L757.5 99.2583L775 59.2583Z" fill="white"/>
<path d="M303 59.2583L243 59.2583L225.5 99.2583L285.5 99.2583L303 59.2583Z" fill="white"/>
<path d="M1129 59.2583L1069 59.2583L1051.5 99.2583L1111.5 99.2583L1129 59.2583Z" fill="white"/>
<path d="M657 59.2583L597 59.2583L579.5 99.2583L639.5 99.2583L657 59.2583Z" fill="white"/>
<path d="M185 59.2584L125 59.2584L107.5 99.2584L167.5 99.2584L185 59.2584Z" fill="white"/>
<path d="M77.5 59.0861L17.5 59.0861L-1.1072e-06 99.0861L60 99.0861L77.5 59.0861Z" fill="white"/>
<path d="M1597.5 59.2583L1537.5 59.2583L1520 99.2583L1580 99.2583L1597.5 59.2583Z" fill="white"/>
<rect x="98" y="18" width="1440" height="40" fill="#323232"/>
<path d="M108 18.0861L168 18.0861L185.5 58.0861L125.5 58.0861L108 18.0861Z" fill="white"/>
<path d="M580 18.0861L640 18.0861L657.5 58.0861L597.5 58.0861L580 18.0861Z" fill="white"/>
<path d="M1052 18.0861L1112 18.0861L1129.5 58.0861L1069.5 58.0861L1052 18.0861Z" fill="white"/>
<path d="M226 18.0861L286 18.0861L303.5 58.0861L243.5 58.0861L226 18.0861Z" fill="white"/>
<path d="M698 18.0861L758 18.0861L775.5 58.0861L715.5 58.0861L698 18.0861Z" fill="white"/>
<path d="M1170 18.0861L1230 18.0861L1247.5 58.0861L1187.5 58.0861L1170 18.0861Z" fill="white"/>
<path d="M344 18.0861L404 18.0861L421.5 58.0861L361.5 58.0861L344 18.0861Z" fill="white"/>
<path d="M816 18.0861L876 18.0861L893.5 58.0861L833.5 58.0861L816 18.0861Z" fill="white"/>
<path d="M1288 18.0861L1348 18.0861L1365.5 58.0861L1305.5 58.0861L1288 18.0861Z" fill="white"/>
<path d="M462 18.0861L522 18.0861L539.5 58.0861L479.5 58.0861L462 18.0861Z" fill="white"/>
<path d="M934 18.0861L994 18.0861L1011.5 58.0861L951.5 58.0861L934 18.0861Z" fill="white"/>
<path d="M1406 18.0861L1466 18.0861L1483.5 58.0861L1423.5 58.0861L1406 18.0861Z" fill="white"/>
<path d="M1524.5 18.0861L1584.5 18.0861L1602 58.0861L1542 58.0861L1524.5 18.0861Z" fill="white"/>
<rect x="98" y="18" width="1440" height="40" fill="#323232"/>
<path d="M108 18.0861L168 18.0861L185.5 58.0861L125.5 58.0861L108 18.0861Z" fill="white"/>
<path d="M580 18.0861L640 18.0861L657.5 58.0861L597.5 58.0861L580 18.0861Z" fill="white"/>
<path d="M1052 18.0861L1112 18.0861L1129.5 58.0861L1069.5 58.0861L1052 18.0861Z" fill="white"/>
<path d="M226 18.0861L286 18.0861L303.5 58.0861L243.5 58.0861L226 18.0861Z" fill="white"/>
<path d="M698 18.0861L758 18.0861L775.5 58.0861L715.5 58.0861L698 18.0861Z" fill="white"/>
<path d="M1170 18.0861L1230 18.0861L1247.5 58.0861L1187.5 58.0861L1170 18.0861Z" fill="white"/>
<path d="M344 18.0861L404 18.0861L421.5 58.0861L361.5 58.0861L344 18.0861Z" fill="white"/>
<path d="M816 18.0861L876 18.0861L893.5 58.0861L833.5 58.0861L816 18.0861Z" fill="white"/>
<path d="M1288 18.0861L1348 18.0861L1365.5 58.0861L1305.5 58.0861L1288 18.0861Z" fill="white"/>
<path d="M462 18.0861L522 18.0861L539.5 58.0861L479.5 58.0861L462 18.0861Z" fill="white"/>
<path d="M934 18.0861L994 18.0861L1011.5 58.0861L951.5 58.0861L934 18.0861Z" fill="white"/>
<path d="M1406 18.0861L1466 18.0861L1483.5 58.0861L1423.5 58.0861L1406 18.0861Z" fill="white"/>
<path d="M1520.5 18.0861L1580.5 18.0861L1598 58.0861L1538 58.0861L1520.5 18.0861Z" fill="white"/>
<rect x="53" y="18" width="45" height="40" fill="#323232"/>
<path d="M0 18.0861L60 18.0861L77.5 58.0861L17.5 58.0861L0 18.0861Z" fill="white"/>
</svg>
